WARNING:root:Error checking GPU support: expected str, bytes or os.PathLike object, not NoneType
INFO:     Started server process [6764]
INFO:     Waiting for application startup.
INFO:     Application startup complete.
INFO:root:Received file: Invoice INV-3182.pdf
INFO:root:Content type: application/pdf
INFO:root:Content size: 72259 bytes
INFO:     104.158.73.223:0 - "POST /extract-text/ HTTP/1.1" 200 OK
INFO:root:Received request with model: groq
INFO:root:Text length: 941
INFO:root:Using Groq API
INFO:httpx:HTTP Request: POST https://api.groq.com/openai/v1/chat/completions "HTTP/1.1 200 OK"
INFO:root:Successfully generated script
INFO:     104.158.73.223:0 - "POST /generate-script/ HTTP/1.1" 200 OK
INFO:httpx:HTTP Request: POST https://api.deepgram.com/v1/speak?model=aura-zeus-en "HTTP/1.1 200 OK"
INFO:root:Generated audio file size: 457665 bytes
INFO:     104.158.73.223:0 - "POST /text-to-speech/ HTTP/1.1" 200 OK
INFO:root:Audio file size: 457665 bytes
INFO:root:Video file size: 3777189 bytes
INFO:root:Audio duration: 76.28s
INFO:root:Video duration: 10.0s
INFO:root:
Video Processing Stats:
- Processing Time: 39.90 seconds
- Input Size: 4.04 MB
- Output Size: 19.34 MB
- Processing Speed: 0.10 MB/s
- Compression Ratio: 0.21x

INFO:     104.158.73.223:0 - "POST /create-video/ HTTP/1.1" 200 OK
INFO:httpx:HTTP Request: POST https://api.assemblyai.com/v2/upload "HTTP/1.1 200 OK"
INFO:httpx:HTTP Request: POST https://api.assemblyai.com/v2/transcript "HTTP/1.1 200 OK"
INFO:httpx:HTTP Request: GET https://api.assemblyai.com/v2/transcript/31ef7efa-c27c-4945-a336-ae8610806b55 "HTTP/1.1 200 OK"
INFO:httpx:HTTP Request: GET https://api.assemblyai.com/v2/transcript/31ef7efa-c27c-4945-a336-ae8610806b55 "HTTP/1.1 200 OK"
INFO:httpx:HTTP Request: GET https://api.assemblyai.com/v2/transcript/31ef7efa-c27c-4945-a336-ae8610806b55 "HTTP/1.1 200 OK"
INFO:httpx:HTTP Request: GET https://api.assemblyai.com/v2/transcript/31ef7efa-c27c-4945-a336-ae8610806b55/srt "HTTP/1.1 200 OK"
INFO:     104.158.73.223:0 - "POST /generate-subtitles/ HTTP/1.1" 200 OK
INFO:root:Initial video size before processing: 19.34 MB
ffmpeg version 7.1-essentials_build-www.gyan.dev Copyright (c) 2000-2024 the FFmpeg developers
  built with gcc 14.2.0 (Rev1, Built by MSYS2 project)
  configuration: --enable-gpl --enable-version3 --enable-static --disable-w32threads --disable-autodetect --enable-fontconfig --enable-iconv --enable-gnutls --enable-libxml2 --enable-gmp --enable-bzlib --enable-lzma --enable-zlib --enable-libsrt --enable-libssh --enable-libzmq --enable-avisynth --enable-sdl2 --enable-libwebp --enable-libx264 --enable-libx265 --enable-libxvid --enable-libaom --enable-libopenjpeg --enable-libvpx --enable-mediafoundation --enable-libass --enable-libfreetype --enable-libfribidi --enable-libharfbuzz --enable-libvidstab --enable-libvmaf --enable-libzimg --enable-amf --enable-cuda-llvm --enable-cuvid --enable-dxva2 --enable-d3d11va --enable-d3d12va --enable-ffnvcodec --enable-libvpl --enable-nvdec --enable-nvenc --enable-vaapi --enable-libgme --enable-libopenmpt --enable-libopencore-amrwb --enable-libmp3lame --enable-libtheora --enable-libvo-amrwbenc --enable-libgsm --enable-libopencore-amrnb --enable-libopus --enable-libspeex --enable-libvorbis --enable-librubberband
  libavutil      59. 39.100 / 59. 39.100
  libavcodec     61. 19.100 / 61. 19.100
  libavformat    61.  7.100 / 61.  7.100
  libavdevice    61.  3.100 / 61.  3.100
  libavfilter    10.  4.100 / 10.  4.100
  libswscale      8.  3.100 /  8.  3.100
  libswresample   5.  3.100 /  5.  3.100
  libpostproc    58.  3.100 / 58.  3.100
Input #0, mov,mp4,m4a,3gp,3g2,mj2, from 'output_video.mp4':
  Metadata:
    major_brand     : isom
    minor_version   : 512
    compatible_brands: isomiso2avc1mp41
    encoder         : Lavf58.29.100
  Duration: 00:01:16.28, start: 0.000000, bitrate: 2126 kb/s
  Stream #0:0[0x1](und): Video: h264 (High) (avc1 / 0x31637661), yuv420p(tv, progressive), 1280x720 [SAR 1:1 DAR 16:9], 1990 kb/s, 30 fps, 30 tbr, 15360 tbn (default)
      Metadata:
        handler_name    : VideoHandler
        vendor_id       : [0][0][0][0]
  Stream #0:1[0x2](und): Audio: aac (LC) (mp4a / 0x6134706D), 44100 Hz, stereo, fltp, 129 kb/s (default)
      Metadata:
        handler_name    : SoundHandler
        vendor_id       : [0][0][0][0]
[Parsed_subtitles_0 @ 0000021d030c6740] libass API version: 0x1703000
[Parsed_subtitles_0 @ 0000021d030c6740] libass source: commit: 0.17.3-32-g5298859c298d3c570d8d7e3b883a0d63490659b8
[Parsed_subtitles_0 @ 0000021d030c6740] Shaper: FriBidi 1.0.16 (SIMPLE) HarfBuzz-ng 10.0.1 (COMPLEX)
[Parsed_subtitles_0 @ 0000021d030c6740] Using font provider directwrite (with GDI)
Stream mapping:
  Stream #0:0 -> #0:0 (h264 (native) -> h264 (h264_amf))
  Stream #0:1 -> #0:1 (aac (native) -> aac (native))
Press [q] to stop, [?] for help
[Parsed_subtitles_0 @ 0000021d03472340] libass API version: 0x1703000
[Parsed_subtitles_0 @ 0000021d03472340] libass source: commit: 0.17.3-32-g5298859c298d3c570d8d7e3b883a0d63490659b8
[Parsed_subtitles_0 @ 0000021d03472340] Shaper: FriBidi 1.0.16 (SIMPLE) HarfBuzz-ng 10.0.1 (COMPLEX)
[Parsed_subtitles_0 @ 0000021d03472340] Using font provider directwrite (with GDI)
Output #0, mp4, to 'output_with_subtitles.mp4':
  Metadata:
    major_brand     : isom
    minor_version   : 512
    compatible_brands: isomiso2avc1mp41
    encoder         : Lavf61.7.100
  Stream #0:0(und): Video: h264 (avc1 / 0x31637661), yuv420p(tv, progressive), 1280x720 [SAR 1:1 DAR 16:9], q=2-31, 2000 kb/s, 30 fps, 15360 tbn (default)
      Metadata:
        handler_name    : VideoHandler
        vendor_id       : [0][0][0][0]
        encoder         : Lavc61.19.100 h264_amf
  Stream #0:1(und): Audio: aac (LC) (mp4a / 0x6134706D), 44100 Hz, stereo, fltp, 128 kb/s (default)
      Metadata:
        handler_name    : SoundHandler
        vendor_id       : [0][0][0][0]
        encoder         : Lavc61.19.100 aac
[Parsed_subtitles_0 @ 0000021d03472340] fontselect: (Arial, 400, 0) -> ArialMT, 0, ArialMT
[h264_amf @ 0000021d030ffac0] Data acquired but delayed drain submission got AMF_INPUT_FULL- should not happen
[out#0/mp4 @ 0000021d0309acc0] video:18619KiB audio:1198KiB subtitle:0KiB other streams:0KiB global headers:0KiB muxing overhead: 0.326430%
frame= 2288 fps= 95 q=-0.0 Lsize=   19882KiB time=00:01:16.23 bitrate=2136.5kbits/s speed=3.17x
[aac @ 0000021d03430180] Qavg: 858.711
INFO:root:
Video Processing Complete:
- Processing Time: 24.41 seconds
- Input Size: 19.34 MB (Raw bytes: 20276903)
- Output Size: 19.42 MB (Raw bytes: 20359404)
- Compression Ratio: 1.00x
- Bitrate: 6.36 Mbps

INFO:     104.158.73.223:0 - "POST /add-hard-subtitles/ HTTP/1.1" 200 OK
INFO:root:Serving video file: output_with_subtitles.mp4, size: 20359404 bytes
INFO:     104.158.73.223:0 - "GET /videos/output_with_subtitles.mp4 HTTP/1.1" 200 OK







